<svg width="25" height="24" viewBox="0 0 25 24" fill="none" xmlns="http://www.w3.org/2000/svg">
<path d="M13.8711 7.45312C14.375 7.5 14.375 7.5 14.75 7.80469C14.8738 7.88977 14.9975 7.97484 15.125 8.0625C15.5778 7.92534 15.5778 7.92534 16.0625 7.6875C16.7377 7.47145 17.1767 7.4173 17.8386 7.69336C18.3826 7.98767 18.9092 8.30344 19.4375 8.625C19.6376 8.73546 19.8378 8.84591 20.0439 8.95972C21.8275 9.94939 21.8275 9.94939 22.4375 10.875C22.5122 11.2749 22.5122 11.2749 22.5078 11.6484C22.5658 12.0081 22.5658 12.0081 22.625 12.375C23.1781 12.6985 23.1781 12.6985 23.75 12.9375C23.9492 13.4062 23.9492 13.4062 23.9375 13.875C23.8493 13.9625 23.7611 14.05 23.6702 14.1401C23.3302 14.4827 23.2627 14.702 23.1406 15.1641C22.8921 15.9652 22.5478 16.6978 22.1562 17.4375C22.046 17.6463 21.9358 17.8552 21.8223 18.0703C21.5 18.5625 21.5 18.5625 20.9375 18.75C20.8563 18.8467 20.7751 18.9434 20.6914 19.043C20.375 19.3125 20.375 19.3125 19.8242 19.3945C19.25 19.3125 19.25 19.3125 18.793 19.0195C18.5 18.5625 18.5 18.5625 18.5469 17.8594C18.5933 17.6583 18.6397 17.4572 18.6875 17.25C18.5669 17.2067 18.4463 17.1635 18.322 17.1189C17.5496 16.7896 16.8295 16.383 16.0977 15.9727C15.9535 15.8928 15.8093 15.8129 15.6608 15.7306C14.7138 15.2024 13.7889 14.6461 12.875 14.0625C12.7783 14.1592 12.6816 14.2559 12.582 14.3555C11.9345 14.7374 11.5268 14.6095 10.8125 14.4375C10.3779 14.0029 10.3536 13.8744 10.3086 13.2773C10.3234 12.2625 10.712 11.559 11.2227 10.7109C11.2951 10.5905 11.3676 10.4701 11.4422 10.3461C11.9026 9.62362 12.3772 9.1506 13.0625 8.625C13.2133 8.13777 13.2133 8.13777 13.25 7.6875C13.4375 7.5 13.4375 7.5 13.8711 7.45312ZM16.1328 8.625C15.924 8.74875 15.7152 8.8725 15.5 9C15.9196 9.45943 16.3378 9.74241 16.885 10.0356C17.0456 10.1227 17.2062 10.2097 17.3717 10.2993C17.5391 10.3887 17.7065 10.4782 17.8789 10.5703C18.9491 11.1453 20.0012 11.7249 21.0157 12.3945C21.3101 12.5933 21.3101 12.5933 21.6875 12.5625C21.7068 12.3305 21.7262 12.0984 21.7461 11.8594C21.7624 11.6636 21.7624 11.6636 21.7791 11.4639C21.6346 10.8305 21.2837 10.6746 20.75 10.3125C20.1517 9.94012 19.5447 9.58526 18.9336 9.23438C18.7711 9.13939 18.6085 9.0444 18.441 8.94653C18.2857 8.85686 18.1305 8.76719 17.9705 8.6748C17.8291 8.59317 17.6878 8.51154 17.5422 8.42743C16.9398 8.12612 16.6804 8.3005 16.1328 8.625ZM12.5 10.125C11.8051 11.0715 11.8051 11.0715 11.5884 12.1772C11.8225 12.7354 12.1531 12.86 12.6816 13.144C12.9738 13.3038 12.9738 13.3038 13.2718 13.4668C13.4812 13.5783 13.6905 13.6898 13.9062 13.8047C14.3351 14.0385 14.7638 14.2727 15.1924 14.5071C15.404 14.6221 15.6156 14.7371 15.8336 14.8556C16.6536 15.3063 17.4612 15.7762 18.2656 16.2539C18.4543 16.3656 18.4543 16.3656 18.6469 16.4796C19.1502 16.7782 19.6505 17.0788 20.1436 17.3943C20.5649 17.6702 20.5649 17.6702 21.125 17.625C21.3511 17.2399 21.573 16.8533 21.793 16.4648C21.8571 16.3564 21.9213 16.248 21.9874 16.1364C22.2631 15.6435 22.4367 15.2665 22.4426 14.6975C21.8827 13.3967 20.5363 12.8024 19.3672 12.1289C19.0928 11.9693 19.0928 11.9693 18.8128 11.8065C18.2723 11.4937 17.7303 11.1838 17.1875 10.875C17.0383 10.7897 16.8891 10.7044 16.7353 10.6165C16.3524 10.399 15.9679 10.1849 15.582 9.97266C15.2626 9.79682 15.2626 9.79682 14.9368 9.61743C13.8695 9.15686 13.306 9.29887 12.5 10.125ZM11.1875 13.125C11.1875 13.3106 11.1875 13.4963 11.1875 13.6875C11.435 13.7494 11.6825 13.8113 11.9375 13.875C11.8138 13.6275 11.69 13.38 11.5625 13.125C11.4388 13.125 11.315 13.125 11.1875 13.125ZM19.4375 17.8125C19.4375 17.9981 19.4375 18.1838 19.4375 18.375C19.685 18.375 19.9325 18.375 20.1875 18.375C20.004 18.1836 19.8163 17.9961 19.625 17.8125C19.5631 17.8125 19.5013 17.8125 19.4375 17.8125Z" fill="white"/>
<path d="M1.81219 8.78906C2.90277 8.96114 3.55306 9.9038 4.24969 10.6875C4.37924 10.8323 4.50879 10.9771 4.64226 11.1262C4.95213 11.4774 5.25742 11.8319 5.56219 12.1875C5.84926 12.4746 6.12121 12.4086 6.52093 12.4211C6.67767 12.4273 6.83441 12.4335 6.9959 12.4398C7.32693 12.4512 7.65799 12.462 7.98907 12.472C8.14653 12.4785 8.304 12.4849 8.46624 12.4915C8.61037 12.4962 8.75449 12.5009 8.90299 12.5057C9.3615 12.5693 9.66942 12.6946 10.0622 12.9375C10.3101 13.4334 10.2678 13.8146 10.2614 14.3672C10.2597 14.5552 10.258 14.7433 10.2563 14.937C10.2541 15.0815 10.2519 15.2261 10.2497 15.375C10.4759 15.4098 10.4759 15.4098 10.7067 15.4453C10.8653 15.484 11.0238 15.5227 11.1872 15.5625C11.4496 16.0873 11.4221 16.4822 11.3747 17.0625C11.1689 17.3774 11.1689 17.3774 10.8122 17.625C10.2241 17.6799 10.2241 17.6799 9.55828 17.6602C9.22655 17.6525 9.22655 17.6525 8.88811 17.6448C8.71868 17.6382 8.54925 17.6317 8.37469 17.625C8.35003 17.8034 8.32538 17.9817 8.29998 18.1655C8.18719 18.75 8.18719 18.75 7.8825 19.1016C7.25208 19.4002 6.81459 19.3972 6.12469 19.3125C5.58562 18.9961 5.58562 18.9961 5.18719 18.5625C5.06853 18.0667 5.06853 18.0667 4.99969 17.625C4.88707 17.626 4.77445 17.627 4.65842 17.628C4.15108 17.6319 3.64375 17.6343 3.1364 17.6367C2.95912 17.6383 2.78183 17.6399 2.59917 17.6415C2.34629 17.6424 2.34629 17.6424 2.08831 17.6433C1.85412 17.6448 1.85412 17.6448 1.61521 17.6463C1.24969 17.625 1.24969 17.625 1.06219 17.4375C1.0438 17.1737 1.03819 16.9091 1.03792 16.6447C1.03733 16.4763 1.03674 16.308 1.03613 16.1346C1.03651 15.9516 1.03689 15.7686 1.03728 15.5801C1.0371 15.3935 1.03692 15.2069 1.03674 15.0147C1.03661 14.6194 1.03696 14.2241 1.03774 13.8288C1.03874 13.2214 1.03775 12.614 1.03655 12.0066C1.03667 11.6235 1.03691 11.2405 1.03728 10.8574C1.0369 10.6744 1.03652 10.4914 1.03613 10.3029C1.03672 10.1346 1.03731 9.96625 1.03792 9.79285C1.03807 9.64394 1.03822 9.49503 1.03838 9.34161C1.07939 8.75315 1.21345 8.81401 1.81219 8.78906ZM1.81219 9.75C1.9911 9.96549 2.17097 10.1802 2.35125 10.3945C2.45131 10.5142 2.55137 10.6338 2.65447 10.7571C2.92261 11.0828 2.92261 11.0828 3.31219 11.25C3.04204 10.6197 2.70328 10.2016 2.18719 9.75C2.06344 9.75 1.93969 9.75 1.81219 9.75ZM1.81219 11.0625C1.81219 11.4956 1.81219 11.9288 1.81219 12.375C2.24531 12.375 2.67844 12.375 3.12469 12.375C2.94175 12.1557 2.75801 11.9371 2.5739 11.7188C2.42055 11.536 2.42055 11.536 2.26409 11.3496C2.17684 11.2549 2.08958 11.1601 1.99969 11.0625C1.93781 11.0625 1.87594 11.0625 1.81219 11.0625ZM4.24969 12.1875C4.24969 12.435 4.24969 12.6825 4.24969 12.9375C3.04312 13.0303 3.04312 13.0303 1.81219 13.125C1.81219 14.3625 1.81219 15.6 1.81219 16.875C3.34296 17.0654 3.34296 17.0654 4.76092 16.6377C4.82811 16.5381 4.8953 16.4385 4.96453 16.3359C5.40174 15.7113 5.49747 15.6399 6.195 15.457C7.10108 15.309 7.59693 15.4553 8.37469 15.9375C8.46363 16.1038 8.55258 16.2701 8.64422 16.4414C8.7409 16.5845 8.83758 16.7276 8.93719 16.875C9.46025 16.9608 9.90274 16.9188 10.4372 16.875C10.4372 16.6275 10.4372 16.38 10.4372 16.125C10.1897 16.0631 9.94219 16.0012 9.68719 15.9375C9.678 15.7637 9.66882 15.5899 9.65935 15.4109C9.64533 15.1863 9.63132 14.9618 9.61687 14.7305C9.59729 14.3944 9.59729 14.3944 9.57732 14.0515C9.53889 13.7785 9.53889 13.7785 9.49969 13.5C9.06102 13.2807 8.79574 13.2891 8.3073 13.2861C8.06294 13.2807 8.06294 13.2807 7.81365 13.2751C7.47189 13.2689 7.13007 13.2654 6.78826 13.2649C5.61369 13.232 5.06921 13.0396 4.24969 12.1875ZM6.49969 16.6875C6.06196 17.0313 6.06196 17.0313 5.74969 17.4375C5.95366 18.0468 5.95366 18.0468 6.31219 18.5625C6.77308 18.6094 6.77308 18.6094 7.24969 18.5625C7.37344 18.4388 7.49719 18.315 7.62469 18.1875C7.56407 17.5131 7.56407 17.5131 7.43719 16.875C7.00726 16.7138 7.00726 16.7138 6.49969 16.6875Z" fill="white"/>
<path d="M6.6875 4.6875C6.935 4.6875 7.1825 4.6875 7.4375 4.6875C7.685 5.36813 7.9325 6.04875 8.1875 6.75C8.32672 6.59145 8.46594 6.43289 8.60938 6.26953C8.77953 6.11871 8.94969 5.96789 9.125 5.8125C9.55859 5.84766 9.55859 5.84766 9.875 6C9.93687 6.43313 9.99875 6.86625 10.0625 7.3125C10.2636 7.18875 10.4647 7.065 10.6719 6.9375C11.2456 6.58445 11.4 6.5625 12.125 6.5625C12.0241 7.49737 11.728 8.15969 11.2695 8.97656C11.1494 9.19264 11.0293 9.40872 10.9055 9.63135C10.8129 9.79425 10.7204 9.95716 10.625 10.125C10.3775 10.0631 10.13 10.0012 9.875 9.9375C10.0606 9.38062 10.2463 8.82375 10.4375 8.25C10.0662 8.43563 10.0662 8.43563 9.6875 8.625C9.50187 8.625 9.31625 8.625 9.125 8.625C9.06313 8.25375 9.00125 7.8825 8.9375 7.5C8.75187 7.7475 8.56625 7.995 8.375 8.25C8.02344 8.22656 8.02344 8.22656 7.625 8.0625C7.39062 7.48828 7.39062 7.48828 7.25 6.9375C7.12625 7.61812 7.0025 8.29875 6.875 9C6.3125 9.1875 6.3125 9.1875 5.90234 9.01172C5.73412 8.91311 5.73412 8.91311 5.5625 8.8125C5.65531 8.98652 5.74812 9.16055 5.84375 9.33984C6.125 9.9375 6.125 9.9375 6.125 10.5C5.8775 10.5 5.63 10.5 5.375 10.5C5.15429 10.1104 4.93593 9.71972 4.71875 9.32812C4.65615 9.21815 4.59355 9.10818 4.52905 8.99487C4.18236 8.36516 4.0625 8.05004 4.0625 7.3125C4.75979 7.40759 5.32523 7.52177 5.9375 7.875C6.25749 6.82359 6.48332 5.76705 6.6875 4.6875Z" fill="white"/>
<path d="M20.7498 13.875C21.7894 14.2869 21.7894 14.2869 22.074 14.7891C22.0567 15.3779 21.8678 15.671 21.4998 16.125C20.9292 16.3242 20.6633 16.3552 20.1016 16.1177C19.9558 16.0195 19.8101 15.9214 19.6599 15.8203C19.5118 15.7251 19.3636 15.6298 19.2109 15.5317C18.8748 15.1875 18.8748 15.1875 18.8066 14.7012C18.8748 14.25 18.8748 14.25 19.1794 13.8984C19.7908 13.6088 20.1031 13.6939 20.7498 13.875ZM19.8123 14.4375C19.7504 14.5612 19.6885 14.685 19.6248 14.8125C20.0604 15.1177 20.0604 15.1177 20.5623 15.375C20.7479 15.3131 20.9335 15.2512 21.1248 15.1875C20.9573 14.7454 20.9573 14.7454 20.363 14.6016C20.1813 14.5474 19.9995 14.4933 19.8123 14.4375Z" fill="white"/>
<path d="M13.5669 9.83203C14.4343 9.97933 14.9577 10.3747 15.5005 11.0625C15.6263 11.7042 15.6186 11.9948 15.2778 12.5508C14.938 12.75 14.938 12.75 14.5161 12.75C13.8093 12.493 13.21 12.1749 12.688 11.625C12.5339 10.7691 12.6048 10.0334 13.5669 9.83203ZM13.6255 10.6875C13.5636 10.8731 13.5017 11.0588 13.438 11.25C14.0481 11.6735 14.0481 11.6735 14.7505 11.8125C14.5169 11.1119 14.2566 11.0273 13.6255 10.6875Z" fill="white"/>
</svg>
