<svg width="19" height="20" viewBox="0 0 19 20" fill="none" xmlns="http://www.w3.org/2000/svg">
<g clip-path="url(#clip0_420_1977)">
<path d="M0 0.5C1.12664 0.5 2.25328 0.5 3.41406 0.5C3.50587 0.944539 3.59768 1.38908 3.68948 1.83362C4.08825 2.39437 4.28402 2.37125 4.94019 2.51492C5.55481 2.6786 5.8542 2.76775 6.24818 3.27501C6.49229 3.78055 6.68981 4.2839 6.87451 4.81396C6.94368 4.99163 7.01285 5.16929 7.08412 5.35234C7.57031 6.62474 7.57031 6.62474 7.57031 7.17969C7.66828 7.17969 7.76625 7.17969 7.86719 7.17969C7.89474 7.04192 7.89474 7.04192 7.92285 6.90137C8.01562 6.58594 8.01562 6.58594 8.3125 6.28906C8.71027 6.2392 8.71027 6.2392 9.18457 6.2334C9.4182 6.22708 9.4182 6.22708 9.65656 6.22064C10.1954 6.30497 10.3571 6.45743 10.6875 6.88281C10.956 7.57334 11.0632 8.09823 10.8359 8.8125C10.3758 9.25781 10.3758 9.25781 9.94531 9.25781C10.2922 9.73474 10.6418 10.0776 11.1096 10.4268C11.9093 11.1188 12.1543 11.9754 12.4688 12.9595C12.5271 13.1318 12.5855 13.3041 12.6456 13.4816C12.7879 13.9034 12.9268 14.326 13.0625 14.75C13.0646 14.6622 13.0667 14.5743 13.0689 14.4839C13.1065 13.8603 13.1475 13.501 13.5229 12.9861C14.0076 12.632 14.4808 12.4228 15.0479 12.2451C15.142 12.2118 15.2361 12.1785 15.3331 12.1442C16.0117 11.9227 16.5293 11.8958 17.2188 12.0781C17.5214 12.3159 17.5214 12.3159 17.7568 12.6162C17.8416 12.7239 17.9264 12.8317 18.0137 12.9427C18.0943 13.0492 18.1748 13.1558 18.2578 13.2656C18.3338 13.3523 18.4097 13.439 18.488 13.5283C18.9332 14.0638 19.1576 14.5485 19.1223 15.2533C18.8135 16.2312 17.8252 17.5199 16.9219 18.0156C16.5392 18.0266 16.5392 18.0266 16.1426 17.9692C16.0102 17.9514 15.8778 17.9336 15.7413 17.9153C15.5909 17.8915 15.5909 17.8915 15.4375 17.8672C15.5232 17.9229 15.6089 17.9785 15.6973 18.0359C15.8075 18.1119 15.9177 18.1878 16.0312 18.2661C16.1415 18.3402 16.2517 18.4142 16.3652 18.4905C16.625 18.7578 16.625 18.7578 16.625 19.5C13.343 19.5 10.0611 19.5 6.67969 19.5C6.6307 19.3041 6.58172 19.1081 6.53125 18.9062C6.78053 18.657 7.09013 18.7329 7.43235 18.7273C7.59282 18.7244 7.75328 18.7214 7.91861 18.7184C8.09318 18.7159 8.26775 18.7134 8.4476 18.7108C8.62531 18.7078 8.80301 18.7047 8.9861 18.7015C9.55632 18.6918 10.1265 18.683 10.6968 18.6743C11.0823 18.6679 11.4678 18.6614 11.8533 18.6549C12.8006 18.639 13.7479 18.6239 14.6953 18.6094C14.5672 18.5339 14.4391 18.4584 14.3071 18.3806C12.7024 17.3493 12.2918 16.1842 11.8008 14.3975C11.2389 12.3615 10.6197 11.1287 8.90625 9.85156C8.7477 9.73124 8.58918 9.61089 8.43068 9.49051C8.29677 9.38923 8.16287 9.28794 8.0249 9.18359C6.95756 8.31522 6.56753 7.23881 6.10217 5.97595C6.05189 5.84264 6.0016 5.70934 5.94979 5.57199C5.85047 5.30607 5.75486 5.03873 5.66342 4.77001C5.42383 4.08229 5.42383 4.08229 4.9262 3.57957C4.61184 3.43652 4.61184 3.43652 4.15625 3.32031C4.1885 3.44683 4.22076 3.57334 4.25399 3.70369C4.37336 4.17506 4.49132 4.64674 4.60834 5.1187C4.65919 5.32256 4.7106 5.52628 4.76258 5.72985C4.83737 6.02317 4.91012 6.31694 4.98251 6.61087C5.04898 6.87555 5.04898 6.87555 5.11678 7.14559C5.19351 7.61399 5.17552 7.91487 5.04688 8.36719C4.80195 8.3182 4.55703 8.26922 4.30469 8.21875C4.09533 7.39235 3.88667 6.56579 3.67865 5.73905C3.60786 5.45812 3.53688 5.17724 3.4657 4.89641C3.36314 4.49158 3.26126 4.08658 3.15952 3.68155C3.11196 3.49478 3.11196 3.49478 3.06345 3.30424C2.89186 2.6181 2.75804 1.94432 2.67188 1.24219C2.03508 1.24219 1.39828 1.24219 0.742188 1.24219C0.742188 7.02234 0.742188 12.8025 0.742188 18.7578C1.81984 18.7578 2.8975 18.7578 4.00781 18.7578C4.0568 18.9538 4.10578 19.1497 4.15625 19.3516C4.10727 19.4005 4.05828 19.4495 4.00781 19.5C2.68523 19.5 1.36266 19.5 0 19.5C0 13.23 0 6.96 0 0.5ZM8.75781 7.17969C8.65984 7.52258 8.56188 7.86547 8.46094 8.21875C8.70955 8.47651 8.70955 8.47651 9.05469 8.66406C9.52042 8.54208 9.75272 8.41134 10.0938 8.07031C9.99578 7.77641 9.89781 7.4825 9.79688 7.17969C9.45398 7.17969 9.11109 7.17969 8.75781 7.17969ZM15.2705 13.1729C15.1746 13.2077 15.0788 13.2425 14.98 13.2784C14.5041 13.4316 14.5041 13.4316 14.1016 13.7109C14.0907 14.1359 14.0878 14.5571 14.0923 14.9819C14.093 15.1016 14.0936 15.2213 14.0943 15.3446C14.0961 15.6412 14.0987 15.9378 14.1016 16.2344C14.9332 16.6309 15.7242 16.9285 16.625 17.125C17.4761 16.2344 17.4761 16.2344 18.1094 15.1953C18.0542 14.5406 17.796 14.1758 17.3857 13.6738C17.2302 13.4798 17.2302 13.4798 17.0715 13.2819C16.4659 12.6456 15.9969 12.897 15.2705 13.1729Z" fill="white"/>
<path d="M16.477 6.14063C17.0258 6.67838 17.658 7.30058 17.6738 8.08887C17.529 8.86449 17.0826 9.5065 16.477 10C15.9889 10.1013 15.6102 10.0015 15.1411 9.85156C15.0276 9.81731 14.9141 9.78306 14.7972 9.74777C13.9874 9.47398 13.9874 9.47398 13.8051 9.10938C13.779 8.73884 13.764 8.37619 13.7588 8.00537C13.7545 7.90425 13.7501 7.80312 13.7457 7.69893C13.7363 6.95649 13.7363 6.95649 14.0637 6.60623C15.72 5.77236 15.72 5.77236 16.477 6.14063ZM14.6958 7.32813C14.6958 7.76899 14.6958 8.20985 14.6958 8.66406C15.1366 8.81102 15.5775 8.95797 16.0317 9.10938C16.2766 8.7175 16.5215 8.32563 16.7739 7.92188C16.6606 7.77492 16.5473 7.62797 16.4306 7.47656C16.3351 7.35257 16.3351 7.35257 16.2375 7.22608C15.7856 6.79828 15.208 7.146 14.6958 7.32813Z" fill="white"/>
<path d="M4.33806 11.9126C4.48032 11.9134 4.62257 11.9142 4.76913 11.915C4.99947 11.9157 4.99947 11.9157 5.23445 11.9164C5.39604 11.9176 5.55763 11.9189 5.72412 11.9202C5.96737 11.9212 5.96737 11.9212 6.21553 11.9222C6.61765 11.924 7.01976 11.9264 7.42188 11.9294C7.69659 12.4073 7.96774 12.8872 8.23828 13.3674C8.31616 13.5028 8.39404 13.6382 8.47427 13.7777C8.54794 13.9092 8.62161 14.0408 8.69751 14.1763C8.76592 14.2968 8.83432 14.4173 8.9048 14.5414C9.07033 14.9354 9.08366 15.2173 9.05469 15.6404C8.85875 15.6894 8.66281 15.7384 8.46094 15.7888C7.96629 15.2165 7.63481 14.6366 7.31055 13.9612C7.15135 13.6336 6.99215 13.306 6.82812 12.9685C5.89742 12.9195 4.96672 12.8705 4.00781 12.8201C3.95883 12.5752 3.90984 12.3302 3.85938 12.0779C4.00781 11.9294 4.00781 11.9294 4.33806 11.9126Z" fill="white"/>
<path d="M12.3203 9.40625C12.7643 9.42491 12.9136 9.55419 13.2318 9.8678C13.3351 9.99715 13.4385 10.1265 13.5449 10.2598C13.6498 10.3876 13.7546 10.5154 13.8627 10.6471C14.1229 11.0741 14.1544 11.2914 14.1016 11.7812C13.7699 11.8253 13.7699 11.8253 13.3594 11.7812C13.0323 11.4774 13.0323 11.4774 12.7285 11.0762C12.6267 10.9453 12.5249 10.8144 12.42 10.6796C12.1968 10.3353 12.0553 10.1102 12.0234 9.70312C12.1214 9.60516 12.2194 9.50719 12.3203 9.40625Z" fill="white"/>
<path d="M11.1328 4.80469C11.8169 5.11739 12.4845 5.66866 12.9141 6.28906C12.8967 6.60971 12.8967 6.60971 12.7656 6.88281C12.6187 6.9318 12.4717 6.98078 12.3203 7.03125C12.0327 6.83411 12.0327 6.83411 11.7266 6.54883C11.6255 6.45622 11.5245 6.36361 11.4204 6.26819C11.3255 6.17711 11.2306 6.08603 11.1328 5.99219C11.0465 5.91374 10.9602 5.83528 10.8713 5.75446C10.8107 5.68595 10.75 5.61745 10.6875 5.54688C10.7153 5.23145 10.7153 5.23145 10.8359 4.95312C10.9339 4.90414 11.0319 4.85516 11.1328 4.80469Z" fill="white"/>
<path d="M5.04688 18.7578C5.2918 18.8068 5.53672 18.8558 5.78906 18.9062C5.74008 19.1022 5.69109 19.2981 5.64062 19.5C5.3957 19.451 5.15078 19.402 4.89844 19.3516C4.94742 19.1556 4.99641 18.9597 5.04688 18.7578Z" fill="white"/>
</g>
<defs>
<clipPath id="clip0_420_1977">
<rect width="19" height="19" fill="white" transform="translate(0 0.5)"/>
</clipPath>
</defs>
</svg>
