<svg width="21" height="22" viewBox="0 0 21 22" fill="none" xmlns="http://www.w3.org/2000/svg">
<g clip-path="url(#clip0_420_1970)">
<path d="M13.4531 0.499911C13.9908 0.910583 14.3629 1.437 14.7656 1.97647C14.9715 2.23804 15.1773 2.49958 15.3839 2.76062C15.5334 2.9503 15.6824 3.14052 15.8306 3.33123C16.5722 4.28487 17.3408 5.21537 18.1133 6.14404C18.2066 6.25656 18.3 6.36907 18.3961 6.48499C18.4792 6.58464 18.5622 6.68429 18.6477 6.78696C19.1847 7.46089 19.2858 7.84352 19.1953 8.70304C18.8965 9.10852 18.6759 9.30368 18.2109 9.49259C17.8828 9.52335 17.8828 9.52335 17.2266 9.35929C16.9017 10.6587 16.5769 11.958 16.2422 13.2968C16.7367 13.2939 16.7367 13.2939 17.2413 13.291C17.5595 13.2899 17.8777 13.2887 18.1958 13.2878C18.4175 13.2869 18.6392 13.2858 18.8609 13.2844C19.1789 13.2824 19.497 13.2816 19.815 13.2808C20.1024 13.2795 20.1024 13.2795 20.3956 13.2782C20.8359 13.2968 20.8359 13.2968 21 13.4608C21 16.1137 21 18.7666 21 21.4999C14.07 21.4999 7.14 21.4999 0 21.4999C0 10.9999 0 10.9999 0.164062 10.8358C0.49213 10.8215 0.8207 10.8183 1.14908 10.8198C1.3484 10.8204 1.54773 10.8209 1.7531 10.8214C1.963 10.8228 2.1729 10.8242 2.38916 10.8256C2.5997 10.8263 2.81023 10.8271 3.02715 10.8278C3.54935 10.8298 4.07155 10.8325 4.59375 10.8358C4.60428 10.735 4.61482 10.6341 4.62567 10.5302C4.63988 10.3976 4.65409 10.2649 4.66873 10.1283C4.68265 9.99699 4.69657 9.86566 4.71091 9.73035C4.76906 9.27032 4.82931 8.93003 5.08594 8.53897C5.59863 8.40567 5.59863 8.40567 6.07031 8.37491C5.96203 8.25986 5.85375 8.14481 5.74219 8.02628C5.36446 7.4833 5.35397 7.21626 5.41406 6.57022C5.26179 6.52623 5.10952 6.48224 4.95264 6.43692C4.18684 6.15163 4.18684 6.15163 3.9375 5.74991C3.84521 5.1962 3.84521 5.1962 3.9375 4.60147C4.68404 3.85612 5.5238 3.45411 6.47791 3.02494C6.62504 2.9573 6.77217 2.88966 6.92376 2.81997C7.39059 2.60573 7.85835 2.39361 8.32617 2.18155C8.64304 2.03664 8.95984 1.89159 9.27658 1.7464C9.97055 1.42848 10.6651 1.1119 11.3602 0.796523C12.0904 0.460721 12.6458 0.307201 13.4531 0.499911ZM10.9948 2.07132C10.8677 2.13167 10.7406 2.19202 10.6097 2.2542C10.2034 2.44755 9.79802 2.64266 9.39258 2.8378C9.12219 2.96673 8.85174 3.09555 8.58124 3.22425C7.41073 3.7823 6.24455 4.34719 5.08594 4.9296C5.08594 5.09202 5.08594 5.25444 5.08594 5.42179C6.0649 5.11826 6.98024 4.75622 7.89807 4.30155C8.1437 4.18269 8.38937 4.06392 8.63507 3.94522C9.01606 3.75999 9.39667 3.57407 9.77662 3.38671C10.1475 3.20429 10.5197 3.02471 10.8922 2.84549C11.0619 2.76041 11.0619 2.76041 11.2351 2.67361C11.7186 2.44294 12.0682 2.30021 12.6083 2.33292C13.1026 2.52318 13.2969 2.79742 13.6172 3.2172C13.7437 3.37941 13.8701 3.54162 14.0004 3.70874C14.0695 3.7986 14.1386 3.88845 14.2098 3.98103C14.638 4.53083 15.083 5.06719 15.5244 5.60636C16.2031 6.43702 16.8674 7.27343 17.4944 8.1442C17.5685 8.22033 17.6425 8.29647 17.7188 8.37491C17.8812 8.37491 18.0436 8.37491 18.2109 8.37491C18.1277 7.67867 17.6944 7.25757 17.2471 6.75479C16.5833 5.99071 15.9407 5.21585 15.3193 4.4169C15.17 4.22635 15.0207 4.03579 14.8714 3.84525C14.6549 3.56851 14.4393 3.29131 14.2256 3.01244C14.028 2.75464 13.8278 2.4988 13.6274 2.24307C13.5143 2.0963 13.4012 1.94953 13.2846 1.79831C12.5687 1.10366 11.7525 1.70425 10.9948 2.07132ZM10.9717 3.81577C10.8564 3.86961 10.7411 3.92346 10.6223 3.97893C10.3784 4.0931 10.1345 4.20759 9.89085 4.32237C9.51758 4.49801 9.14366 4.67221 8.76965 4.84629C8.53292 4.95728 8.29622 5.06836 8.05957 5.17954C7.94746 5.23167 7.83534 5.28381 7.71983 5.33753C6.86439 5.73928 6.86439 5.73928 6.37793 6.51895C6.3411 7.06557 6.3411 7.06557 6.68106 7.3822C7.01541 7.67292 7.35478 7.94743 7.71094 8.21085C7.67953 8.52487 7.67953 8.52487 7.54688 8.8671C7.1835 9.00424 7.1835 9.00424 6.73682 9.09268C6.29358 9.19899 6.29358 9.19899 5.90625 9.35929C5.57483 9.95839 5.57812 10.3137 5.57812 10.9999C5.89581 11.0827 6.21373 11.1645 6.53174 11.246C6.70875 11.2917 6.88577 11.3374 7.06815 11.3844C7.54513 11.5101 7.54513 11.5101 8.03906 11.4921C8.07299 11.3488 8.10692 11.2056 8.14188 11.0579C8.26769 10.528 8.39402 9.99812 8.52072 9.46835C8.57551 9.23876 8.63009 9.00911 8.68446 8.77942C8.76251 8.44984 8.84131 8.12044 8.92026 7.79108C8.96751 7.59261 9.01477 7.39414 9.06345 7.18966C9.1875 6.73429 9.1875 6.73429 9.35156 6.57022C10.3907 6.6511 11.3833 6.83665 12.397 7.07266C12.8538 7.17756 13.3106 7.28246 13.7812 7.39054C13.2128 9.98929 13.2128 9.98929 12.6328 12.6405C14.3694 13.1593 14.3694 13.1593 15.2578 13.1327C15.312 12.8079 15.3661 12.483 15.4219 12.1483C15.317 12.1077 15.2121 12.0671 15.104 12.0253C14.7656 11.8202 14.7656 11.8202 14.6426 11.4716C14.629 11.3701 14.6155 11.2686 14.6016 11.164C14.9264 11.164 15.2513 11.164 15.5859 11.164C15.8123 10.6627 15.9751 10.1581 16.1089 9.62589C16.1383 9.50957 16.1677 9.39325 16.198 9.27341C16.2691 8.61993 16.2671 8.01798 15.9059 7.44589C15.6763 7.16321 15.4356 6.89706 15.186 6.63175C15.0067 6.4331 14.8279 6.23399 14.6496 6.03446C14.5594 5.93389 14.4692 5.83333 14.3762 5.72972C13.8786 5.15552 13.4292 4.54397 12.9812 3.93072C12.8176 3.71121 12.6441 3.49921 12.4688 3.28897C11.9228 3.28897 11.4582 3.58665 10.9717 3.81577ZM10.0078 7.5546C9.52239 8.91841 9.02344 10.3626 9.02344 11.8202C9.36477 11.9075 9.70668 11.9925 10.0488 12.0766C10.2392 12.1242 10.4295 12.1717 10.6256 12.2208C11.1286 12.3076 11.3417 12.2884 11.8125 12.1483C11.9504 11.5881 12.0867 11.0274 12.2227 10.4667C12.2813 10.2285 12.2813 10.2285 12.3412 9.98541C12.3782 9.83209 12.4152 9.67876 12.4534 9.52078C12.4877 9.37988 12.5221 9.23898 12.5575 9.09381C12.6535 8.66196 12.6535 8.66196 12.6328 8.04679C12.3186 7.96379 12.0041 7.88199 11.6895 7.80069C11.5143 7.75501 11.3392 7.70933 11.1588 7.66226C10.6416 7.53134 10.6416 7.53134 10.0078 7.5546ZM0.984375 11.8202C0.984375 14.6897 0.984375 17.5591 0.984375 20.5155C7.26469 20.5155 13.545 20.5155 20.0156 20.5155C20.0156 18.4582 20.0156 16.4008 20.0156 14.2812C19.2509 14.2744 18.4862 14.2676 17.6982 14.2607C17.4622 14.2577 17.2262 14.2547 16.983 14.2516C14.6687 14.1899 14.6687 14.1899 12.4688 14.7733C12.4722 15.3322 12.4722 15.3322 12.6328 15.9218C13.1143 16.2516 13.1143 16.2516 13.6172 16.414C13.563 16.6305 13.5089 16.8471 13.4531 17.0702C13.138 16.9634 12.8229 16.8566 12.5078 16.7498C12.1093 16.7107 12.1093 16.7107 11.6946 16.9882C11.2016 17.5284 11.2071 17.8654 11.187 18.5878C11.1792 18.7951 11.1714 19.0023 11.1633 19.2159C11.161 19.374 11.1586 19.5322 11.1562 19.6952C10.8314 19.7764 10.8314 19.7764 10.5 19.8593C10.2331 19.5417 9.96655 19.2238 9.7002 18.9057C9.58694 18.771 9.58694 18.771 9.47141 18.6336C8.55289 17.5354 8.55289 17.5354 8.46973 17.0087C8.53125 16.578 8.53125 16.578 8.89014 16.2089C9.23829 15.7928 9.23829 15.7928 9.12149 15.3777C8.99446 15.0036 8.85572 14.6421 8.69531 14.2812C7.96441 14.3624 7.96441 14.3624 7.21875 14.4452C7.13754 14.1204 7.13754 14.1204 7.05469 13.789C7.62316 13.5453 7.62316 13.5453 8.20312 13.2968C8.11688 12.8896 8.11688 12.8896 7.875 12.4765C5.80334 11.461 3.13002 11.8202 0.984375 11.8202ZM9.1875 12.8046C9.31469 13.6195 9.64702 14.2682 10.0142 14.9996C10.1854 15.4666 10.1953 15.6341 10.0078 16.0858C9.87077 16.2889 9.87077 16.2889 9.73096 16.496C9.46569 16.8857 9.46569 16.8857 9.61816 17.2548C9.83698 17.5532 10.0624 17.8059 10.3359 18.0546C10.3393 17.8854 10.3427 17.7162 10.3462 17.5419C10.5139 16.8487 10.5534 16.8203 11.0947 16.4447C11.4177 16.2215 11.4177 16.2215 11.6484 15.9218C11.6851 15.4654 11.6329 15.0858 11.5446 14.6375C11.4844 14.2812 11.4844 14.2812 11.6484 13.953C12.1509 13.8505 12.1509 13.8505 12.6328 13.789C12.2588 13.4149 12.0979 13.3867 11.5908 13.2852C11.4512 13.2567 11.3116 13.2281 11.1678 13.1987C10.9489 13.1559 10.9489 13.1559 10.7256 13.1122C10.5784 13.0824 10.4312 13.0526 10.2795 13.0219C9.91574 12.9483 9.55174 12.8759 9.1875 12.8046Z" fill="white"/>
<path d="M1.14844 18.875C2.55609 18.875 3.96375 18.875 5.41406 18.875C5.4682 19.0916 5.52234 19.3081 5.57812 19.5312C5.25 19.8594 5.25 19.8594 4.8539 19.8992C4.69171 19.8986 4.52951 19.8979 4.3624 19.8972C4.18654 19.8969 4.01069 19.8966 3.82951 19.8962C3.6452 19.8942 3.46089 19.8922 3.271 19.8901C2.99358 19.89 2.99358 19.89 2.71056 19.8898C1.33549 19.8824 1.33549 19.8824 1.14844 19.6953C1.14844 19.4246 1.14844 19.1539 1.14844 18.875Z" fill="white"/>
<path d="M6.07031 18.875C6.34519 18.9219 6.61891 18.9764 6.89062 19.0391C6.83648 19.2556 6.78234 19.4722 6.72656 19.6953C6.51 19.6953 6.29344 19.6953 6.07031 19.6953C5.97803 19.3774 5.97803 19.3774 5.90625 19.0391C5.96039 18.9849 6.01453 18.9308 6.07031 18.875Z" fill="white"/>
</g>
<defs>
<clipPath id="clip0_420_1970">
<rect width="21" height="21" fill="white" transform="translate(0 0.5)"/>
</clipPath>
</defs>
</svg>
