<svg width="21" height="22" viewBox="0 0 21 22" fill="none" xmlns="http://www.w3.org/2000/svg">
<g clip-path="url(#clip0_420_2095)">
<mask id="path-1-inside-1_420_2095" fill="white">
<path d="M11.9765 0.500022C12.2614 1.17383 11.977 1.71218 11.7407 2.35598C11.3005 3.65201 11.1195 4.86876 11.3203 6.24221C11.6167 6.82852 11.8805 7.24427 12.4687 7.55471C13.1674 7.6171 13.6847 7.62191 14.2734 7.22658C14.4575 6.87175 14.4575 6.87175 14.5605 6.4678C14.6002 6.33371 14.64 6.19963 14.681 6.06148C14.7089 5.9587 14.7368 5.85592 14.7656 5.75002C15.6393 5.8551 15.9351 6.2105 16.4754 6.86706C17.4794 8.26118 17.4708 9.83383 17.3906 11.4922C17.3138 11.9523 17.2049 12.3595 17.0624 12.8047C17.3021 12.7307 17.5413 12.6553 17.7802 12.5791C17.9135 12.5372 18.0467 12.4954 18.184 12.4522C18.566 12.3292 18.566 12.3292 18.8671 11.9844C19.4472 12.0723 19.4472 12.0723 19.6874 12.3125C19.8448 14.3191 19.2759 16.4049 18.0398 17.9932C16.3732 19.9208 14.2542 21.2741 11.6756 21.5497C11.2073 21.5715 10.7431 21.5768 10.2744 21.5718C10.1096 21.5706 9.94478 21.5693 9.775 21.568C7.44163 21.5164 5.54776 20.7337 3.77338 19.2031C2.06183 17.2079 1.41352 15.0886 1.43549 12.4971C1.43422 12.3436 1.43295 12.19 1.43164 12.0318C1.43206 11.8846 1.43249 11.7374 1.43292 11.5858C1.43329 11.4534 1.43366 11.321 1.43404 11.1847C1.4765 10.836 1.4765 10.836 1.80463 10.3438C2.47948 10.3642 2.77704 10.6188 3.22992 11.0821C3.37299 11.2369 3.37299 11.2369 3.51895 11.3948C3.76163 11.6729 3.76163 11.6729 4.1015 11.8203C4.10573 11.6514 4.10996 11.4824 4.11432 11.3083C4.22039 8.3342 4.82208 5.74299 6.56244 3.28908C6.83314 3.34323 7.10385 3.39737 7.38275 3.45315C7.2907 4.03379 7.14612 4.45055 6.83929 4.95022C5.69731 6.94044 5.37832 8.9935 5.32172 11.2564C5.31194 11.6087 5.30151 11.9609 5.29031 12.3132C5.28639 12.4668 5.28246 12.6205 5.27842 12.7788C5.24994 13.1328 5.24994 13.1328 5.08588 13.2969C4.01333 13.275 3.42723 12.8299 2.62494 12.1485C2.49025 14.4344 2.96714 16.4134 4.42963 18.2188C4.8004 18.5499 5.14795 18.7845 5.57806 19.0391C5.50986 18.9135 5.50986 18.9135 5.44028 18.7853C4.68065 17.2606 4.58427 15.7384 5.08588 14.1172C5.29261 13.6382 5.53732 13.1871 5.7934 12.7329C5.92632 12.4881 6.05919 12.2433 6.19202 11.9985C6.40287 11.6154 6.61569 11.2336 6.83032 10.8526C7.31803 9.95023 7.52215 9.12644 7.65192 8.10778C7.71088 7.71877 7.71088 7.71877 7.87494 7.55471C9.09914 7.5281 9.94425 8.24477 10.8281 9.03127C11.6453 9.95247 12.0224 10.9626 12.3046 12.1485C12.4129 12.1485 12.5212 12.1485 12.6328 12.1485C12.6801 12.0469 12.7275 11.9454 12.7763 11.8408C12.9609 11.4922 12.9609 11.4922 13.289 11.1641C13.605 11.166 13.605 11.166 13.9453 11.3281C14.2189 11.7518 14.2189 11.7518 14.4682 12.2818C14.5517 12.4554 14.6353 12.629 14.7213 12.8079C15.0635 13.6112 15.1106 14.2246 15.0937 15.1016C14.8501 15.1828 14.8501 15.1828 14.6015 15.2656C13.9744 14.8476 13.9533 14.564 13.7504 13.8506C13.694 13.6556 13.6375 13.4606 13.5793 13.2597C13.5377 13.1096 13.496 12.9594 13.4531 12.8047C13.2839 12.9367 13.1147 13.0686 12.9404 13.2046C12.4073 13.5852 11.99 13.7735 11.3203 13.7891C10.9921 13.461 10.9921 13.461 10.9774 13.1162C10.9856 12.9796 10.9939 12.8429 11.0024 12.7022C11.0209 11.6283 10.7723 10.8144 10.1103 9.96438C9.70915 9.55369 9.35298 9.31277 8.85931 9.03127C8.8019 9.18449 8.8019 9.18449 8.74332 9.34081C8.40361 10.2015 8.03487 11.021 7.59424 11.8344C7.51426 11.9823 7.43428 12.1302 7.35187 12.2826C7.19125 12.5767 7.02853 12.8696 6.86345 13.1612C6.22081 14.3385 5.71536 15.6247 6.02924 16.978C6.18309 17.4165 6.32891 17.8184 6.56244 18.2188C6.53537 18.1376 6.5083 18.0564 6.48041 17.9727C6.20589 16.6001 6.51396 15.4709 7.16742 14.2608C7.81936 13.4502 8.63224 12.559 9.67963 12.3125C9.84205 12.3937 9.84205 12.3937 10.0078 12.4766C10.002 12.6466 9.99633 12.8167 9.99045 12.9918C9.98583 13.2166 9.98135 13.4413 9.97699 13.666C9.97287 13.7779 9.96874 13.8898 9.96449 14.0051C9.95701 14.5191 9.97857 14.8822 10.2205 15.3406C10.5078 15.6495 10.5078 15.6495 11.0639 15.6655C11.6822 15.5896 11.8317 15.4641 12.3046 15.1016C12.7148 15.0913 12.7148 15.0913 13.1249 15.2656C13.6236 15.8783 13.8933 16.4783 14.1093 17.2344C14.3259 17.2344 14.5424 17.2344 14.7656 17.2344C14.8777 17.5087 14.8777 17.5087 14.9296 17.8906C14.7303 18.3136 14.7303 18.3136 14.4477 18.752C14.3549 18.8983 14.262 19.0447 14.1664 19.1955C14.0934 19.3063 14.0204 19.4171 13.9453 19.5313C14.5699 19.5313 14.7609 19.3348 15.2578 18.9673C15.7084 18.6353 16.0375 18.3963 16.5703 18.2188C16.7438 17.917 16.7438 17.917 16.8984 17.5625C17.0567 17.3319 17.2175 17.103 17.3803 16.8755C18.0612 15.8659 18.3845 14.8304 18.539 13.625C18.3991 13.6606 18.3991 13.6606 18.2564 13.6968C17.4541 13.8897 16.7392 14.0047 15.914 13.9531C15.7499 13.7891 15.7499 13.7891 15.7089 13.3892C15.7453 12.8702 15.8308 12.53 15.996 12.0459C16.5021 10.4331 16.3296 9.05547 15.5859 7.55471C15.4523 7.65844 15.4523 7.65844 15.3161 7.76427C15.1987 7.85416 15.0813 7.94404 14.9604 8.03664C14.8443 8.1261 14.7282 8.21556 14.6086 8.30773C13.8924 8.80206 13.1422 8.78073 12.3046 8.70315C11.3357 8.36774 10.778 7.74095 10.2949 6.84719C9.89718 5.42215 10.0879 4.28808 10.3865 2.87508C10.5159 2.32118 10.5159 2.32118 10.4999 1.81252C10.324 1.89712 10.148 1.98171 9.96674 2.06887C9.5825 2.23299 9.38464 2.30645 8.96185 2.2842C8.69525 2.14065 8.69525 2.14065 8.53119 1.64846C9.68198 0.883214 10.5562 0.443211 11.9765 0.500022ZM8.69525 14.1172C7.89467 14.9389 7.44264 15.7842 7.35519 16.9434C7.41183 18.1307 7.97859 19.1864 8.84778 19.9869C9.38809 20.3664 9.7537 20.5092 10.4179 20.5567C11.4372 20.1926 12.1817 19.5023 12.725 18.5674C13.0531 17.8367 12.96 17.1802 12.7968 16.4141C12.3169 16.3774 12.3169 16.3774 11.9765 16.5781C11.2305 16.6468 10.5535 16.6661 9.85394 16.3833C9.10736 15.7272 8.95466 15.0897 8.85931 14.1172C8.80517 14.1172 8.75103 14.1172 8.69525 14.1172Z"/>
</mask>
<path d="M11.9765 0.500022C12.2614 1.17383 11.977 1.71218 11.7407 2.35598C11.3005 3.65201 11.1195 4.86876 11.3203 6.24221C11.6167 6.82852 11.8805 7.24427 12.4687 7.55471C13.1674 7.6171 13.6847 7.62191 14.2734 7.22658C14.4575 6.87175 14.4575 6.87175 14.5605 6.4678C14.6002 6.33371 14.64 6.19963 14.681 6.06148C14.7089 5.9587 14.7368 5.85592 14.7656 5.75002C15.6393 5.8551 15.9351 6.2105 16.4754 6.86706C17.4794 8.26118 17.4708 9.83383 17.3906 11.4922C17.3138 11.9523 17.2049 12.3595 17.0624 12.8047C17.3021 12.7307 17.5413 12.6553 17.7802 12.5791C17.9135 12.5372 18.0467 12.4954 18.184 12.4522C18.566 12.3292 18.566 12.3292 18.8671 11.9844C19.4472 12.0723 19.4472 12.0723 19.6874 12.3125C19.8448 14.3191 19.2759 16.4049 18.0398 17.9932C16.3732 19.9208 14.2542 21.2741 11.6756 21.5497C11.2073 21.5715 10.7431 21.5768 10.2744 21.5718C10.1096 21.5706 9.94478 21.5693 9.775 21.568C7.44163 21.5164 5.54776 20.7337 3.77338 19.2031C2.06183 17.2079 1.41352 15.0886 1.43549 12.4971C1.43422 12.3436 1.43295 12.19 1.43164 12.0318C1.43206 11.8846 1.43249 11.7374 1.43292 11.5858C1.43329 11.4534 1.43366 11.321 1.43404 11.1847C1.4765 10.836 1.4765 10.836 1.80463 10.3438C2.47948 10.3642 2.77704 10.6188 3.22992 11.0821C3.37299 11.2369 3.37299 11.2369 3.51895 11.3948C3.76163 11.6729 3.76163 11.6729 4.1015 11.8203C4.10573 11.6514 4.10996 11.4824 4.11432 11.3083C4.22039 8.3342 4.82208 5.74299 6.56244 3.28908C6.83314 3.34323 7.10385 3.39737 7.38275 3.45315C7.2907 4.03379 7.14612 4.45055 6.83929 4.95022C5.69731 6.94044 5.37832 8.9935 5.32172 11.2564C5.31194 11.6087 5.30151 11.9609 5.29031 12.3132C5.28639 12.4668 5.28246 12.6205 5.27842 12.7788C5.24994 13.1328 5.24994 13.1328 5.08588 13.2969C4.01333 13.275 3.42723 12.8299 2.62494 12.1485C2.49025 14.4344 2.96714 16.4134 4.42963 18.2188C4.8004 18.5499 5.14795 18.7845 5.57806 19.0391C5.50986 18.9135 5.50986 18.9135 5.44028 18.7853C4.68065 17.2606 4.58427 15.7384 5.08588 14.1172C5.29261 13.6382 5.53732 13.1871 5.7934 12.7329C5.92632 12.4881 6.05919 12.2433 6.19202 11.9985C6.40287 11.6154 6.61569 11.2336 6.83032 10.8526C7.31803 9.95023 7.52215 9.12644 7.65192 8.10778C7.71088 7.71877 7.71088 7.71877 7.87494 7.55471C9.09914 7.5281 9.94425 8.24477 10.8281 9.03127C11.6453 9.95247 12.0224 10.9626 12.3046 12.1485C12.4129 12.1485 12.5212 12.1485 12.6328 12.1485C12.6801 12.0469 12.7275 11.9454 12.7763 11.8408C12.9609 11.4922 12.9609 11.4922 13.289 11.1641C13.605 11.166 13.605 11.166 13.9453 11.3281C14.2189 11.7518 14.2189 11.7518 14.4682 12.2818C14.5517 12.4554 14.6353 12.629 14.7213 12.8079C15.0635 13.6112 15.1106 14.2246 15.0937 15.1016C14.8501 15.1828 14.8501 15.1828 14.6015 15.2656C13.9744 14.8476 13.9533 14.564 13.7504 13.8506C13.694 13.6556 13.6375 13.4606 13.5793 13.2597C13.5377 13.1096 13.496 12.9594 13.4531 12.8047C13.2839 12.9367 13.1147 13.0686 12.9404 13.2046C12.4073 13.5852 11.99 13.7735 11.3203 13.7891C10.9921 13.461 10.9921 13.461 10.9774 13.1162C10.9856 12.9796 10.9939 12.8429 11.0024 12.7022C11.0209 11.6283 10.7723 10.8144 10.1103 9.96438C9.70915 9.55369 9.35298 9.31277 8.85931 9.03127C8.8019 9.18449 8.8019 9.18449 8.74332 9.34081C8.40361 10.2015 8.03487 11.021 7.59424 11.8344C7.51426 11.9823 7.43428 12.1302 7.35187 12.2826C7.19125 12.5767 7.02853 12.8696 6.86345 13.1612C6.22081 14.3385 5.71536 15.6247 6.02924 16.978C6.18309 17.4165 6.32891 17.8184 6.56244 18.2188C6.53537 18.1376 6.5083 18.0564 6.48041 17.9727C6.20589 16.6001 6.51396 15.4709 7.16742 14.2608C7.81936 13.4502 8.63224 12.559 9.67963 12.3125C9.84205 12.3937 9.84205 12.3937 10.0078 12.4766C10.002 12.6466 9.99633 12.8167 9.99045 12.9918C9.98583 13.2166 9.98135 13.4413 9.97699 13.666C9.97287 13.7779 9.96874 13.8898 9.96449 14.0051C9.95701 14.5191 9.97857 14.8822 10.2205 15.3406C10.5078 15.6495 10.5078 15.6495 11.0639 15.6655C11.6822 15.5896 11.8317 15.4641 12.3046 15.1016C12.7148 15.0913 12.7148 15.0913 13.1249 15.2656C13.6236 15.8783 13.8933 16.4783 14.1093 17.2344C14.3259 17.2344 14.5424 17.2344 14.7656 17.2344C14.8777 17.5087 14.8777 17.5087 14.9296 17.8906C14.7303 18.3136 14.7303 18.3136 14.4477 18.752C14.3549 18.8983 14.262 19.0447 14.1664 19.1955C14.0934 19.3063 14.0204 19.4171 13.9453 19.5313C14.5699 19.5313 14.7609 19.3348 15.2578 18.9673C15.7084 18.6353 16.0375 18.3963 16.5703 18.2188C16.7438 17.917 16.7438 17.917 16.8984 17.5625C17.0567 17.3319 17.2175 17.103 17.3803 16.8755C18.0612 15.8659 18.3845 14.8304 18.539 13.625C18.3991 13.6606 18.3991 13.6606 18.2564 13.6968C17.4541 13.8897 16.7392 14.0047 15.914 13.9531C15.7499 13.7891 15.7499 13.7891 15.7089 13.3892C15.7453 12.8702 15.8308 12.53 15.996 12.0459C16.5021 10.4331 16.3296 9.05547 15.5859 7.55471C15.4523 7.65844 15.4523 7.65844 15.3161 7.76427C15.1987 7.85416 15.0813 7.94404 14.9604 8.03664C14.8443 8.1261 14.7282 8.21556 14.6086 8.30773C13.8924 8.80206 13.1422 8.78073 12.3046 8.70315C11.3357 8.36774 10.778 7.74095 10.2949 6.84719C9.89718 5.42215 10.0879 4.28808 10.3865 2.87508C10.5159 2.32118 10.5159 2.32118 10.4999 1.81252C10.324 1.89712 10.148 1.98171 9.96674 2.06887C9.5825 2.23299 9.38464 2.30645 8.96185 2.2842C8.69525 2.14065 8.69525 2.14065 8.53119 1.64846C9.68198 0.883214 10.5562 0.443211 11.9765 0.500022ZM8.69525 14.1172C7.89467 14.9389 7.44264 15.7842 7.35519 16.9434C7.41183 18.1307 7.97859 19.1864 8.84778 19.9869C9.38809 20.3664 9.7537 20.5092 10.4179 20.5567C11.4372 20.1926 12.1817 19.5023 12.725 18.5674C13.0531 17.8367 12.96 17.1802 12.7968 16.4141C12.3169 16.3774 12.3169 16.3774 11.9765 16.5781C11.2305 16.6468 10.5535 16.6661 9.85394 16.3833C9.10736 15.7272 8.95466 15.0897 8.85931 14.1172C8.80517 14.1172 8.75103 14.1172 8.69525 14.1172Z" fill="black" stroke="black" stroke-width="6" mask="url(#path-1-inside-1_420_2095)"/>
<path d="M14.4375 15.4297C14.7759 15.5015 14.7759 15.5015 15.0938 15.5938C15.0938 15.8103 15.0938 16.0269 15.0938 16.25C14.8772 16.3041 14.6606 16.3583 14.4375 16.4141C14.3748 16.1424 14.3204 15.8686 14.2734 15.5938C14.3276 15.5396 14.3817 15.4855 14.4375 15.4297Z" fill="black"/>
<path d="M7.54688 2.30469C7.76344 2.41297 7.98 2.52125 8.20312 2.63281C8.14898 2.84938 8.09484 3.06594 8.03906 3.28906C7.76836 3.23492 7.49766 3.18078 7.21875 3.125C7.3623 2.48926 7.3623 2.48926 7.54688 2.30469Z" fill="black"/>
</g>
<defs>
<clipPath id="clip0_420_2095">
<rect width="21" height="21" fill="white" transform="translate(0 0.5)"/>
</clipPath>
</defs>
</svg>
