<svg width="19" height="18" viewBox="0 0 19 18" fill="none" xmlns="http://www.w3.org/2000/svg">
<g clip-path="url(#clip0_420_2131)">
<path d="M5.98438 2.53125C6.4782 2.9341 6.58112 3.30094 6.65234 3.91113C6.66642 4.10726 6.67894 4.30354 6.6875 4.5C6.76001 4.40718 6.83252 4.31437 6.90723 4.21875C7.25 3.9375 7.25 3.9375 7.74219 3.86718C8.23438 3.9375 8.23438 3.9375 8.57715 4.15722C9.02222 4.85154 8.77505 5.75063 8.65625 6.53027C8.61709 6.79103 8.61709 6.79103 8.57715 7.05706C8.55685 7.18776 8.53654 7.31846 8.51562 7.45312C8.69255 7.44442 8.86947 7.43572 9.05176 7.42675C9.59892 7.42966 9.59892 7.42966 9.92188 7.61132C10.13 8.0015 10.0988 8.27904 10.0625 8.71875C9.91791 9.06327 9.7754 9.35808 9.58789 9.67675C9.53847 9.76267 9.48905 9.84858 9.43813 9.9371C9.00719 10.648 8.48303 11.1638 7.82678 11.6768C7.28552 12.1829 7.20871 12.7881 7.10938 13.5C7.24859 13.4536 7.38781 13.4072 7.53125 13.3594C8.52274 13.2926 8.52274 13.2926 8.9375 13.5C9.2068 13.5224 9.2068 13.5224 9.5 13.5176C9.59861 13.5179 9.69723 13.5183 9.79883 13.5187C10.0754 13.516 10.0754 13.516 10.3438 13.3594C10.9609 13.328 11.3855 13.3335 11.9785 13.5176C12.5461 13.6647 12.7565 13.5579 13.2969 13.3594C14.2594 13.2781 14.2594 13.2781 14.7031 13.5C14.9724 13.5224 14.9724 13.5224 15.2656 13.5176C15.3642 13.5179 15.4629 13.5183 15.5645 13.5187C15.841 13.516 15.841 13.516 16.1094 13.3594C16.9989 13.2969 17.6727 13.4595 18.5 13.7812C18.5 14.0133 18.5 14.2453 18.5 14.4844C17.9271 14.4944 17.4069 14.4891 16.8389 14.4053C16.3887 14.3098 16.3887 14.3098 15.9688 14.4844C15.2848 14.5257 14.6079 14.5007 13.9297 14.4053C13.4594 14.3003 13.4594 14.3003 13.1562 14.4844C12.4517 14.5241 11.744 14.5202 11.0469 14.4053C10.6191 14.3106 10.6191 14.3106 10.2031 14.4844C9.51917 14.5257 8.84228 14.5007 8.16406 14.4053C7.69381 14.3003 7.69381 14.3003 7.39062 14.4844C6.68608 14.5241 5.9784 14.5202 5.28125 14.4053C4.85344 14.3106 4.85344 14.3106 4.4375 14.4844C3.75354 14.5257 3.07665 14.5007 2.39844 14.4053C1.92819 14.3003 1.92819 14.3003 1.625 14.4844C1.2492 14.5032 0.876523 14.4904 0.5 14.4844C0.5 14.2523 0.5 14.0203 0.5 13.7812C1.82328 13.2969 1.82328 13.2969 2.46875 13.3594C2.32782 12.6547 2.15786 12.0023 1.90625 11.3291C1.5821 10.3903 1.49702 9.46159 1.40637 8.47924C1.34762 7.85676 1.23161 7.25435 1.08667 6.64618C1.05521 6.23223 1.15069 5.98973 1.34375 5.625C1.76562 5.34375 1.76562 5.34375 2.1875 5.34375C2.1788 5.21613 2.1701 5.08851 2.16113 4.95703C2.1875 4.5 2.1875 4.5 2.32812 4.16601C2.69124 3.87098 3.00042 3.8515 3.46136 3.87103C3.73438 3.9375 3.73438 3.9375 4.08594 4.28906C4.15555 4.40507 4.22516 4.52109 4.29688 4.64062C4.3005 4.53548 4.30413 4.43034 4.30786 4.32202C4.3724 3.20141 4.3724 3.20141 4.66602 2.71582C5.1437 2.45183 5.44787 2.44502 5.98438 2.53125ZM5.28125 3.375C5.16263 4.33895 5.10069 5.2964 5.06152 6.2666C5.05545 6.40845 5.04938 6.55029 5.04312 6.69644C5.02836 7.0424 5.014 7.38838 5 7.73437C4.76797 7.78078 4.53594 7.82718 4.29688 7.875C3.99436 7.01066 3.76187 6.1564 3.57178 5.26025C3.53262 5.14859 3.49347 5.03692 3.45312 4.92187C3.31391 4.87547 3.17469 4.82906 3.03125 4.78125C3.13674 5.81857 3.28921 6.84539 3.45312 7.875C3.22109 7.875 2.98906 7.875 2.75 7.875C2.72281 7.76496 2.69562 7.65493 2.6676 7.54156C2.63099 7.39926 2.59437 7.25696 2.55664 7.11035C2.5028 6.89744 2.5028 6.89744 2.44788 6.68023C2.36669 6.30623 2.36669 6.30623 2.04688 6.1875C2.07595 6.53489 2.10716 6.88196 2.14026 7.229C2.17476 7.59813 2.20575 7.96687 2.23474 8.33642C2.33907 9.54534 2.52936 10.5483 3.01587 11.673C3.255 12.3179 3.29744 12.9573 3.3125 13.6406C3.96648 13.6785 3.96648 13.6785 4.57812 13.5C5.17978 13.4806 5.68532 13.4767 6.26562 13.6406C6.27614 13.5319 6.28665 13.4231 6.29749 13.311C6.44243 12.1628 6.71622 11.3707 7.63507 10.6315C7.71683 10.5687 7.79858 10.506 7.88281 10.4414C8.57119 9.89254 8.87058 9.08504 9.21875 8.29687C8.7385 8.38504 8.7385 8.38504 8.41895 8.76269C7.84762 9.42666 7.0512 9.66384 6.21289 9.85254C5.63026 9.98228 5.63026 9.98228 5.28125 10.4062C5.16516 10.7797 5.08173 11.1478 5 11.5312C4.86078 11.5312 4.72156 11.5312 4.57812 11.5312C4.36056 10.8679 4.55279 10.367 4.71875 9.70312C3.95305 9.77273 3.95305 9.77273 3.17188 9.84375C3.17188 9.61172 3.17188 9.37968 3.17188 9.14062C3.9962 8.96993 4.79037 8.99533 5.6265 9.01785C5.73463 9.01939 5.84276 9.02093 5.95416 9.02252C6.05116 9.02489 6.14815 9.02725 6.24808 9.02969C6.6385 8.99089 6.90717 8.91274 7.25 8.71875C7.41102 8.38105 7.41102 8.38105 7.47247 7.97277C7.50193 7.82395 7.53139 7.67512 7.56174 7.52179C7.58938 7.36571 7.61703 7.20963 7.64551 7.04882C7.69105 6.81634 7.69105 6.81634 7.73752 6.57916C7.85469 5.96691 7.95312 5.40626 7.95312 4.78125C7.81391 4.78125 7.67469 4.78125 7.53125 4.78125C7.25281 5.75578 6.97437 6.73031 6.6875 7.73437C6.45547 7.78078 6.22344 7.82718 5.98438 7.875C5.83947 7.39026 5.81591 6.93151 5.79926 6.427C5.79336 6.25751 5.78747 6.08802 5.7814 5.91339C5.77587 5.73701 5.77034 5.56063 5.76465 5.3789C5.75858 5.20035 5.7525 5.02179 5.74625 4.83783C5.73133 4.39711 5.71698 3.95638 5.70312 3.51562C5.56391 3.46922 5.42469 3.42281 5.28125 3.375Z" fill="black"/>
<path d="M16.0882 0.475732C17.0915 1.22956 17.6493 2.11895 17.9114 3.34866C18.0174 4.51488 17.69 5.56503 16.9534 6.46877C16.2423 7.21717 15.5326 7.70166 14.488 7.76406C13.7622 7.77121 13.062 7.76295 12.3435 7.6531C11.8896 7.56008 11.8896 7.56008 11.469 7.7344C11.086 7.76701 10.7307 7.75281 10.344 7.7344C10.0628 7.45315 10.0628 7.45315 10.0364 6.93459C10.045 6.54158 10.0841 6.18372 10.1419 5.79202C10.2373 5.34188 10.2373 5.34188 10.0628 4.9219C9.95254 3.62289 9.95442 2.48627 10.7659 1.40627C12.1492 -0.118893 14.2373 -0.614504 16.0882 0.475732ZM11.8909 1.5469C11.1761 2.28347 10.8666 2.83561 10.8713 3.86721C10.8706 4.02528 10.8699 4.18335 10.8692 4.34622C10.9054 4.76785 10.9904 4.98029 11.1878 5.34377C11.1438 5.75686 11.1438 5.75686 11.0471 6.18752C10.9999 6.42182 10.9529 6.65618 10.9065 6.89065C11.0642 6.8553 11.0642 6.8553 11.2251 6.81924C11.3636 6.7906 11.5021 6.76196 11.6448 6.73245C11.7818 6.70308 11.9189 6.67371 12.0601 6.64346C12.4965 6.60567 12.6481 6.67093 13.0159 6.89065C13.9912 7.11572 14.7098 6.97809 15.5735 6.50393C16.2802 5.93853 16.8892 5.29204 17.0056 4.36599C17.0265 3.32568 16.9635 2.61404 16.2503 1.82815C14.9403 0.521539 13.3463 0.382561 11.8909 1.5469Z" fill="black"/>
<path d="M3.17188 17.0158C3.44117 17.0381 3.44117 17.0381 3.73438 17.0333C3.83299 17.0337 3.9316 17.0341 4.0332 17.0344C4.30975 17.0318 4.30975 17.0318 4.57812 16.8751C5.1953 16.8438 5.61986 16.8493 6.21289 17.0333C6.78045 17.1805 6.99092 17.0736 7.53125 16.8751C8.49373 16.7939 8.49373 16.7939 8.9375 17.0158C9.2068 17.0381 9.2068 17.0381 9.5 17.0333C9.59861 17.0337 9.69723 17.0341 9.79883 17.0344C10.0754 17.0318 10.0754 17.0318 10.3438 16.8751C10.9609 16.8438 11.3855 16.8493 11.9785 17.0333C12.5461 17.1805 12.7565 17.0736 13.2969 16.8751C14.2594 16.7939 14.2594 16.7939 14.7031 17.0158C14.9724 17.0381 14.9724 17.0381 15.2656 17.0333C15.3642 17.0337 15.4629 17.0341 15.5645 17.0344C15.841 17.0318 15.841 17.0318 16.1094 16.8751C16.9989 16.8127 17.6727 16.9753 18.5 17.297C18.5 17.529 18.5 17.7611 18.5 18.0001C17.9271 18.0102 17.4069 18.0048 16.8389 17.921C16.3887 17.8256 16.3887 17.8256 15.9688 18.0001C15.2848 18.0414 14.6079 18.0165 13.9297 17.921C13.4594 17.816 13.4594 17.816 13.1562 18.0001C12.4517 18.0399 11.744 18.036 11.0469 17.921C10.6191 17.8263 10.6191 17.8263 10.2031 18.0001C9.51917 18.0414 8.84228 18.0165 8.16406 17.921C7.69381 17.816 7.69381 17.816 7.39062 18.0001C6.68608 18.0399 5.9784 18.036 5.28125 17.921C4.85344 17.8263 4.85344 17.8263 4.4375 18.0001C3.75354 18.0414 3.07665 18.0165 2.39844 17.921C1.92819 17.816 1.92819 17.816 1.625 18.0001C1.2492 18.019 0.876523 18.0062 0.5 18.0001C0.5 17.7681 0.5 17.5361 0.5 17.297C2.31934 16.5895 2.31934 16.5895 3.17188 17.0158Z" fill="black"/>
<path d="M11.2051 15.1698C11.75 15.1874 11.75 15.1874 12.2861 15.2665C12.7188 15.3689 12.7188 15.3689 13.0156 15.1874C13.7202 15.1477 14.4278 15.1515 15.125 15.2665C15.5528 15.3612 15.5528 15.3612 15.9688 15.1874C16.919 15.1087 17.6553 15.1588 18.5 15.6093C18.4536 15.8413 18.4072 16.0733 18.3594 16.3124C17.5508 16.33 17.5508 16.33 17.2344 16.1718C16.7178 16.153 16.3205 16.1483 15.8281 16.3124C15.5557 16.3311 15.5557 16.3311 15.2656 16.33C15.1221 16.3305 15.1221 16.3305 14.9756 16.3311C14.7031 16.3124 14.7031 16.3124 14.2812 16.1718C13.6267 16.1288 13.6267 16.1288 13.0156 16.3124C12.1701 16.4019 11.5027 16.3205 10.7656 15.8905C10.625 15.5917 10.625 15.5917 10.625 15.328C10.7656 15.1874 10.7656 15.1874 11.2051 15.1698Z" fill="black"/>
<path d="M3.59375 15.2667C4.02156 15.3614 4.02156 15.3614 4.4375 15.1876C5.14567 15.1493 5.85471 15.1531 6.55566 15.2667C6.95833 15.3671 6.95833 15.3671 7.25 15.1876C7.57808 15.182 7.90631 15.1815 8.23438 15.1876C8.32227 15.4513 8.32227 15.4513 8.375 15.7501C7.86648 16.2586 7.2777 16.3311 6.58203 16.339C6.22258 16.3359 6.0264 16.3336 5.70312 16.172C5.18657 16.1532 4.78927 16.1485 4.29688 16.3126C4.02441 16.3313 4.02441 16.3313 3.73438 16.3302C3.59081 16.3307 3.59081 16.3307 3.44434 16.3313C3.17188 16.3126 3.17188 16.3126 2.75 16.172C2.09542 16.129 2.09542 16.129 1.48438 16.3126C1.20318 16.3182 0.921809 16.3187 0.640625 16.3126C0.594219 16.0806 0.547812 15.8485 0.5 15.6095C1.50509 15.0734 2.48284 15.0902 3.59375 15.2667Z" fill="black"/>
<path d="M13.7191 1.6875C14.0003 1.73145 14.0003 1.73145 14.2816 1.82812C14.4894 2.24379 14.4462 2.62265 14.4486 3.08496C14.4506 3.26025 14.4526 3.43555 14.4546 3.61615C14.4222 4.07812 14.4222 4.07812 14.141 4.5C13.9553 4.45359 13.7697 4.40719 13.5785 4.35938C13.5747 3.94042 13.5719 3.5215 13.5697 3.10254C13.5685 2.98299 13.5673 2.86344 13.5661 2.74026C13.5657 2.62652 13.5652 2.51277 13.5647 2.39557C13.564 2.29026 13.5633 2.18495 13.5625 2.07645C13.5785 1.82812 13.5785 1.82812 13.7191 1.6875Z" fill="black"/>
<path d="M9.21875 15.4688C9.45078 15.5152 9.68281 15.5616 9.92188 15.6094C9.87547 15.8414 9.82906 16.0734 9.78125 16.3125C9.54922 16.2661 9.31719 16.2197 9.07812 16.1719C9.12453 15.9398 9.17094 15.7078 9.21875 15.4688Z" fill="black"/>
<path d="M13.7188 5.20312C13.9972 5.27273 13.9972 5.27273 14.2812 5.34375C14.2348 5.57578 14.1884 5.80781 14.1406 6.04688C13.955 6.00047 13.7694 5.95406 13.5781 5.90625C13.6245 5.67422 13.6709 5.44219 13.7188 5.20312Z" fill="black"/>
</g>
<defs>
<clipPath id="clip0_420_2131">
<rect width="18" height="18" fill="white" transform="translate(0.5)"/>
</clipPath>
</defs>
</svg>
