<svg width="17" height="20" viewBox="0 0 17 20" fill="none" xmlns="http://www.w3.org/2000/svg">
<path d="M5.56348 15H9.56348M5.56348 11H9.56348M5.56348 7H6.56348M13.5732 16V13M13.5732 19H13.5632M9.56348 1H4.76348C3.64337 1 3.08332 1 2.6555 1.21799C2.27917 1.40973 1.97321 1.71569 1.78146 2.09202C1.56348 2.51984 1.56348 3.0799 1.56348 4.2V15.8C1.56348 16.9201 1.56348 17.4802 1.78146 17.908C1.97321 18.2843 2.27917 18.5903 2.6555 18.782C3.08332 19 3.64337 19 4.76348 19H9.56348M9.56348 1L15.5635 7M9.56348 1V5.4C9.56348 5.96005 9.56348 6.24008 9.67247 6.45399C9.76834 6.64215 9.92132 6.79513 10.1095 6.89101C10.3234 7 10.6034 7 11.1635 7H15.5635M15.5635 7V9" stroke="white" stroke-width="2" stroke-linecap="round" stroke-linejoin="round"/>
</svg>
